<svg preserveAspectRatio="none" width="100%" height="100%" overflow="visible" style="display: block;" viewBox="0 0 26.7647 29.4125" fill="none" xmlns="http://www.w3.org/2000/svg">
<path id="Vector" d="M1.91176 27.5007H8.97V17.7947C8.97 17.3576 9.11848 16.9911 9.41544 16.6954C9.71113 16.3985 10.0775 16.25 10.5147 16.25H16.25C16.6872 16.25 17.0542 16.3985 17.3512 16.6954C17.6469 16.9911 17.7947 17.3576 17.7947 17.7947V27.5007H24.8529V10.8837C24.8529 10.6874 24.8102 10.509 24.7249 10.3484C24.6395 10.1878 24.5228 10.0476 24.375 9.92779L14.0821 2.16985C13.8858 1.99907 13.6525 1.91368 13.3824 1.91368C13.1122 1.91368 12.8796 1.99907 12.6846 2.16985L2.38971 9.92779C2.24314 10.0501 2.12652 10.1903 2.03985 10.3484C1.95319 10.5064 1.91049 10.6849 1.91176 10.8837V27.5007ZM0 27.5007V10.8837C0 10.3943 0.109608 9.93098 0.328823 9.49383C0.548039 9.05667 0.850098 8.69662 1.235 8.41368L11.5299 0.617501C12.069 0.205834 12.6846 0 13.3766 0C14.0687 0 14.6881 0.205834 15.2349 0.617501L25.5297 8.41177C25.9159 8.69471 26.2179 9.05539 26.4359 9.49383C26.6551 9.93098 26.7647 10.3943 26.7647 10.8837V27.5007C26.7647 28.0131 26.5742 28.4598 26.1931 28.8409C25.812 29.222 25.3653 29.4125 24.8529 29.4125H17.4276C16.9892 29.4125 16.6222 29.2647 16.3265 28.969C16.0308 28.672 15.8829 28.305 15.8829 27.8678V18.1637H10.8818V27.8678C10.8818 28.3062 10.7339 28.6733 10.4382 28.969C10.1425 29.2647 9.77613 29.4125 9.33897 29.4125H1.91176C1.39941 29.4125 0.952696 29.222 0.571617 28.8409C0.190539 28.4598 0 28.0131 0 27.5007Z" fill="var(--fill-0, #4F4F4F)"/>
</svg>
