<svg preserveAspectRatio="none" width="100%" height="100%" overflow="visible" style="display: block;" viewBox="0 0 48.9412 39" fill="none" xmlns="http://www.w3.org/2000/svg">
<g id="nav icon">
<path id="Vector" d="M33.8039 16.0024C34.4228 16.0024 35.0163 16.2482 35.4538 16.6858C35.8914 17.1234 36.1373 17.7169 36.1373 18.3357V30.3361C36.1372 30.4999 36.0886 30.66 35.9976 30.7962C35.9066 30.9324 35.7772 31.0385 35.6259 31.1012C35.4746 31.1639 35.308 31.1803 35.1473 31.1484C34.9867 31.1164 34.8391 31.0375 34.7233 30.9217L32.1543 28.3527C31.7168 27.9151 31.1234 27.6692 30.5046 27.6691H22.1373C21.5184 27.6691 20.9249 27.4232 20.4873 26.9856C20.0498 26.5481 19.8039 25.9546 19.8039 25.3357V24.1691M29.1373 17.1691C29.1373 17.7879 28.8914 18.3814 28.4538 18.819C28.0163 19.2566 27.4228 19.5024 26.8039 19.5024H18.4366C17.8178 19.5025 17.2244 19.7484 16.7869 20.1861L14.2179 22.7551C14.1021 22.8709 13.9545 22.9498 13.7938 22.9817C13.6332 23.0137 13.4666 22.9973 13.3153 22.9346C13.1639 22.8719 13.0346 22.7657 12.9436 22.6295C12.8525 22.4933 12.8039 22.3332 12.8039 22.1694V10.1691C12.8039 9.55021 13.0498 8.95672 13.4873 8.51914C13.9249 8.08155 14.5184 7.83572 15.1373 7.83572H26.8039C27.4228 7.83572 28.0163 8.08155 28.4538 8.51914C28.8914 8.95672 29.1373 9.55021 29.1373 10.1691V17.1691Z" stroke="var(--stroke-0, #4F4F4F)" stroke-width="1.6" stroke-linecap="round" stroke-linejoin="round"/>
</g>
</svg>
