<svg preserveAspectRatio="none" width="100%" height="100%" overflow="visible" style="display: block;" viewBox="0 0 48.9412 39" fill="none" xmlns="http://www.w3.org/2000/svg">
<g id="nav icon">
<path id="Vector" d="M23.3038 22.4178H18.0538C16.8162 22.4178 15.6292 22.9095 14.754 23.7847C13.8788 24.6598 13.3872 25.8468 13.3872 27.0845V29.4178M34.8282 24.3148C35.2929 23.8501 35.554 23.2198 35.554 22.5625C35.554 21.9052 35.2929 21.2749 34.8282 20.8102C34.3634 20.3454 33.7331 20.0843 33.0758 20.0843C32.4186 20.0843 31.7883 20.3454 31.3235 20.8102L26.6452 25.4908C26.3678 25.7681 26.1648 26.1107 26.0548 26.4872L25.0783 29.8355C25.0491 29.9359 25.0473 30.0423 25.0733 30.1436C25.0992 30.2449 25.1519 30.3374 25.2259 30.4113C25.2998 30.4853 25.3923 30.538 25.4936 30.5639C25.5949 30.5899 25.7013 30.5881 25.8017 30.5588L29.15 29.5823C29.5264 29.4724 29.8691 29.2694 30.1463 28.992L34.8282 24.3148ZM26.2205 13.0845C26.2205 15.6618 24.1312 17.7512 21.5538 17.7512C18.9765 17.7512 16.8872 15.6618 16.8872 13.0845C16.8872 10.5072 18.9765 8.41783 21.5538 8.41783C24.1312 8.41783 26.2205 10.5072 26.2205 13.0845Z" stroke="var(--stroke-0, #4F4F4F)" stroke-width="1.6" stroke-linecap="round" stroke-linejoin="round"/>
</g>
</svg>
